<?xml version="1.0" standalone="no"?>
<!DOCTYPE svg PUBLIC "-//W3C//DTD SVG 20010904//EN"
 "http://www.w3.org/TR/2001/REC-SVG-20010904/DTD/svg10.dtd">
<svg version="1.0" xmlns="http://www.w3.org/2000/svg"
 width="700.000000pt" height="700.000000pt" viewBox="0 0 700.000000 700.000000"
 preserveAspectRatio="xMidYMid meet">
<metadata>
Created by potrace 1.14, written by Peter Selinger 2001-2017
</metadata>
<g transform="translate(0.000000,700.000000) scale(0.100000,-0.100000)"
fill="#000000" stroke="none">
<path d="M3177 6783 c-3 -3 -50 -6 -104 -8 -92 -4 -159 -9 -228 -20 -16 -3
-67 -7 -113 -10 -45 -2 -96 -11 -112 -20 -16 -8 -42 -17 -57 -19 -15 -2 -41
-8 -56 -15 -16 -6 -34 -11 -40 -11 -7 0 -50 -12 -97 -26 -47 -13 -92 -26 -100
-28 -15 -4 -41 -14 -95 -37 -16 -6 -34 -13 -40 -13 -5 -1 -20 -7 -31 -13 -12
-7 -24 -10 -26 -7 -3 2 -11 -2 -18 -11 -7 -8 -20 -15 -30 -15 -9 0 -20 -3 -24
-7 -4 -5 -11 -8 -14 -8 -16 0 -262 -129 -262 -137 0 -4 -8 -8 -18 -8 -10 0
-28 -9 -40 -20 -12 -11 -24 -20 -26 -20 -3 0 -31 -17 -62 -37 -31 -21 -68 -46
-83 -55 -34 -23 -67 -47 -93 -70 -12 -10 -24 -18 -27 -18 -3 0 -22 -15 -42
-33 -20 -17 -58 -51 -85 -73 -118 -100 -291 -281 -399 -419 -22 -27 -42 -52
-45 -55 -3 -3 -21 -29 -40 -57 -18 -29 -38 -53 -43 -53 -6 0 -8 -3 -4 -6 3 -4
-5 -21 -18 -39 -14 -17 -25 -37 -25 -43 0 -6 -4 -12 -9 -14 -23 -9 -218 -385
-213 -410 1 -5 -2 -8 -8 -8 -6 0 -9 -3 -8 -7 1 -8 -6 -29 -27 -78 -25 -56 -44
-119 -39 -127 3 -4 1 -8 -5 -8 -5 0 -12 -15 -16 -32 -4 -18 -16 -49 -27 -68
-12 -20 -21 -56 -23 -86 -1 -28 -4 -55 -7 -60 -3 -5 -9 -25 -13 -44 -4 -19
-14 -43 -23 -52 -10 -12 -15 -40 -16 -88 -1 -38 -4 -70 -8 -70 -4 0 -3 -13 2
-29 4 -16 5 -32 2 -36 -15 -14 -26 -186 -26 -390 0 -184 9 -329 29 -442 13
-79 16 -100 21 -138 3 -21 8 -43 11 -48 3 -4 7 -23 10 -40 2 -18 11 -54 19
-82 9 -27 18 -61 20 -75 8 -41 66 -214 76 -225 4 -5 8 -19 8 -32 0 -13 5 -23
10 -23 6 0 10 -11 10 -25 0 -14 5 -25 10 -25 6 0 10 -4 10 -9 0 -5 5 -22 12
-38 6 -15 11 -31 10 -35 -1 -5 3 -8 10 -8 6 0 9 -3 5 -6 -3 -3 18 -52 47 -108
68 -131 79 -149 91 -158 6 -4 6 -8 2 -8 -4 0 3 -15 17 -33 15 -19 26 -39 26
-45 0 -7 5 -12 12 -12 6 0 9 -3 5 -6 -3 -3 3 -15 13 -27 11 -12 19 -26 19 -30
0 -4 6 -14 13 -22 18 -20 28 -33 67 -90 19 -28 38 -52 41 -55 3 -3 18 -21 33
-40 70 -88 120 -142 222 -245 110 -110 213 -205 222 -205 2 0 10 -6 17 -13 18
-17 80 -66 109 -86 14 -9 60 -39 103 -68 44 -28 87 -59 97 -67 9 -9 20 -16 23
-16 3 0 38 -19 77 -42 40 -23 74 -43 77 -43 3 -1 30 -14 60 -30 30 -16 58 -28
63 -27 4 1 7 -3 7 -9 0 -5 4 -8 8 -5 4 2 30 -7 57 -21 49 -25 240 -100 280
-109 29 -7 38 -10 55 -17 22 -10 210 -58 245 -63 42 -6 73 -12 125 -23 43 -9
113 -19 190 -27 19 -2 62 -7 95 -10 91 -11 446 -4 540 10 17 2 57 7 90 11 33
3 78 10 100 15 84 19 121 24 158 21 23 -2 45 3 55 12 14 12 116 49 147 52 62
8 125 49 125 81 0 8 -18 69 -41 136 -22 68 -42 130 -44 138 -2 8 -12 40 -24
70 -12 30 -21 63 -21 73 0 9 -4 17 -8 17 -4 0 -9 10 -9 22 -1 13 -6 32 -12 43
-19 41 -33 92 -41 153 -6 44 -15 70 -29 83 -12 11 -21 28 -21 38 0 10 -3 21
-7 25 -5 4 -8 11 -9 14 0 4 -3 14 -7 22 -7 19 -50 151 -53 165 -2 6 -17 51
-34 100 -17 50 -32 97 -35 105 -2 8 -25 78 -50 155 -26 76 -48 144 -50 150 -1
5 -5 17 -8 25 -3 8 -38 112 -77 230 -39 118 -73 222 -77 230 -3 8 -7 20 -8 25
-2 6 -24 73 -50 150 -25 77 -48 147 -50 155 -2 8 -31 95 -65 193 -33 99 -57
183 -54 189 4 6 9 6 13 1 3 -5 94 -37 201 -72 107 -35 204 -67 215 -73 12 -5
27 -10 35 -12 8 -2 24 -6 35 -10 11 -5 31 -12 45 -16 14 -4 34 -11 45 -15 11
-3 22 -7 25 -7 5 -1 196 -66 220 -75 8 -3 20 -7 25 -7 13 -2 87 -27 100 -35 6
-3 15 -6 22 -7 17 -3 84 -24 108 -34 11 -4 52 -18 90 -30 39 -13 77 -25 85
-28 17 -6 18 -6 40 -14 8 -3 38 -13 65 -23 28 -9 59 -19 70 -22 11 -3 27 -7
35 -11 8 -3 17 -6 20 -6 3 -1 19 -6 35 -12 17 -7 57 -20 90 -30 33 -10 64 -22
69 -26 6 -4 20 -8 31 -8 12 0 25 -3 29 -7 3 -4 12 -8 19 -9 11 -2 238 -77 277
-91 8 -3 20 -7 25 -9 6 -1 29 -9 52 -17 22 -9 44 -13 47 -10 3 4 6 1 6 -5 0
-7 8 -12 19 -12 10 0 35 -7 55 -15 20 -8 39 -16 43 -16 5 -1 18 -5 31 -10 13
-5 35 -12 50 -15 15 -4 33 -11 40 -17 6 -5 12 -7 12 -3 0 3 17 0 38 -8 20 -8
46 -17 57 -22 11 -4 29 -9 39 -11 11 -2 25 -8 33 -14 7 -6 13 -9 13 -6 0 4 18
0 40 -8 48 -17 77 -16 94 5 15 17 55 141 71 220 2 8 4 15 5 15 2 0 10 33 31
135 6 30 12 60 13 65 1 6 5 15 9 22 4 6 3 15 -3 18 -7 4 -8 11 -2 18 12 15 28
136 37 282 2 33 4 62 5 65 6 13 5 37 -2 56 -4 12 -4 25 0 28 9 9 9 136 0 136
-4 0 -3 11 2 24 5 13 6 26 3 29 -3 3 -6 32 -8 64 -2 32 -6 85 -10 118 -4 33
-9 71 -10 85 -2 14 -4 25 -5 25 -1 0 -3 14 -5 30 -4 39 -15 106 -21 127 -3 10
-7 29 -10 43 -9 51 -13 71 -29 130 -9 33 -18 65 -19 70 -2 6 -6 17 -9 25 -3 8
-15 47 -26 86 -11 38 -28 88 -37 110 -10 21 -19 47 -21 56 -1 9 -12 33 -23 52
-11 20 -18 36 -15 36 5 0 -125 263 -134 270 -3 3 -15 23 -26 45 -21 42 -57
101 -75 122 -5 7 -10 16 -10 21 0 5 -9 17 -20 27 -11 10 -20 24 -20 32 0 7 -4
13 -9 13 -5 0 -12 8 -15 18 -4 9 -19 31 -34 49 -15 18 -38 48 -52 68 -26 37
-31 43 -150 175 -41 45 -78 88 -82 94 -4 6 -8 8 -8 5 0 -3 -28 22 -62 55 -35
34 -90 84 -123 111 -33 28 -62 52 -65 55 -3 3 -21 17 -40 30 -19 13 -41 31
-49 38 -12 12 -30 25 -109 77 -105 70 -179 115 -189 115 -7 0 -13 5 -13 11 0
5 -4 7 -10 4 -5 -3 -10 -3 -10 2 0 4 -33 24 -73 43 -39 19 -73 38 -75 43 -2 4
-7 7 -12 7 -5 0 -30 10 -57 22 -26 12 -50 22 -53 23 -3 1 -16 6 -30 12 -14 6
-45 19 -70 28 -25 9 -54 21 -65 25 -38 15 -110 42 -112 41 -2 0 -8 1 -15 4 -7
2 -33 9 -58 16 -25 7 -49 14 -55 15 -60 18 -198 48 -270 59 -22 4 -61 10 -86
14 -25 4 -56 7 -67 6 -12 -1 -22 1 -22 5 0 3 -19 6 -42 7 -24 1 -106 5 -183 8
-77 3 -145 8 -152 10 -6 2 -13 1 -16 -2z"/>
<path d="M3970 3069 c0 -6 -5 -7 -10 -4 -13 8 -41 -20 -42 -42 -1 -15 10 -57
37 -143 1 -3 5 -13 8 -22 4 -10 10 -26 14 -35 3 -10 7 -20 7 -23 4 -16 49
-158 56 -175 5 -11 14 -38 21 -60 6 -22 15 -49 20 -60 6 -17 31 -90 34 -105 1
-3 4 -12 8 -20 3 -8 11 -33 17 -55 6 -22 15 -49 20 -60 7 -16 30 -86 35 -105
1 -3 4 -12 8 -20 6 -16 16 -57 24 -100 2 -13 8 -29 12 -35 8 -9 68 -172 74
-200 2 -5 5 -14 9 -20 3 -5 9 -26 14 -45 11 -51 53 -174 66 -195 4 -8 17 -53
23 -85 0 -3 11 -31 23 -63 12 -33 24 -66 26 -75 2 -10 6 -25 9 -34 8 -22 14
-41 15 -48 0 -3 10 -30 22 -60 12 -30 23 -62 25 -70 2 -12 92 -286 111 -340 3
-8 5 -17 6 -20 0 -3 6 -21 14 -40 8 -19 15 -37 16 -40 1 -8 4 -18 39 -120 17
-52 32 -101 32 -107 0 -7 4 -13 9 -13 4 0 7 -3 7 -7 -1 -5 0 -10 1 -13 1 -3 3
-12 5 -20 6 -32 47 -156 56 -172 5 -10 9 -23 9 -29 0 -28 59 -55 89 -39 14 8
48 21 61 25 33 8 90 30 108 41 12 8 22 12 22 10 0 -5 204 87 222 101 7 5 38
21 68 37 62 31 72 36 153 88 32 21 62 38 67 38 5 0 10 3 12 8 2 4 23 21 48 37
25 17 50 37 57 45 7 8 13 12 13 8 0 -5 9 0 19 10 11 9 26 22 33 27 27 21 114
91 141 115 60 52 263 258 297 299 19 24 45 56 58 70 74 85 234 316 225 325 -4
3 -2 6 4 6 6 0 25 29 44 65 18 36 37 65 41 65 4 0 8 4 8 10 0 5 26 65 58 132
33 68 65 139 72 158 7 19 19 49 25 65 7 17 17 44 23 60 6 17 13 39 17 50 22
60 3 85 -92 115 -37 12 -75 24 -83 27 -8 4 -18 7 -22 7 -3 1 -10 4 -14 8 -4 4
-14 2 -22 -5 -13 -9 -14 -9 -8 1 6 11 -12 17 -30 10 -3 -2 -10 5 -15 15 -6 9
-14 15 -20 12 -5 -4 -15 -3 -21 2 -7 4 -17 8 -23 9 -5 1 -120 39 -255 84 -135
45 -249 83 -255 85 -5 1 -17 5 -25 8 -38 15 -156 51 -162 49 -5 -1 -8 2 -8 8
0 5 -7 10 -15 10 -9 0 -78 21 -153 46 -75 25 -144 47 -152 49 -8 2 -45 15 -82
28 -37 13 -70 22 -73 19 -3 -3 -5 0 -5 6 0 7 -8 12 -19 12 -10 0 -55 13 -99
29 -45 16 -83 26 -87 23 -3 -3 -5 -1 -5 4 0 5 -9 10 -21 11 -19 2 -85 23 -134
43 -32 14 -69 24 -77 22 -5 -1 -8 2 -8 6 0 5 -6 9 -12 9 -7 0 -65 17 -128 37
-141 46 -139 45 -145 46 -3 0 -18 6 -34 14 -15 8 -39 17 -52 20 -37 8 -116 34
-137 45 -10 5 -30 12 -43 15 -13 2 -73 21 -134 42 -173 58 -195 64 -195 53z"/>
</g>
</svg>
