<?xml version="1.0" standalone="no"?>
<!DOCTYPE svg PUBLIC "-//W3C//DTD SVG 20010904//EN"
 "http://www.w3.org/TR/2001/REC-SVG-20010904/DTD/svg10.dtd">
<svg version="1.0" xmlns="http://www.w3.org/2000/svg"
 width="700.000000pt" height="700.000000pt" viewBox="0 0 700.000000 700.000000"
 preserveAspectRatio="xMidYMid meet">
<metadata>
Created by potrace 1.14, written by Peter Selinger 2001-2017
</metadata>
<g transform="translate(0.000000,700.000000) scale(0.100000,-0.100000)"
fill="#000000" stroke="none">
<path d="M3059 6776 c-2 -2 -43 -7 -91 -11 -49 -3 -96 -8 -105 -10 -19 -3
-133 -16 -180 -20 -16 -1 -50 -9 -78 -17 -27 -9 -104 -30 -170 -48 -288 -77
-602 -216 -850 -378 -55 -36 -267 -194 -313 -234 -92 -79 -326 -322 -401 -417
-272 -342 -463 -729 -571 -1156 -38 -151 -45 -189 -55 -280 -8 -72 -13 -122
-22 -190 -9 -77 -9 -407 0 -505 39 -398 141 -757 309 -1090 114 -226 195 -353
350 -546 437 -545 1068 -929 1753 -1064 101 -20 158 -30 210 -36 28 -3 61 -8
75 -11 45 -9 483 -11 570 -2 138 14 163 17 256 33 49 9 107 18 129 21 53 7 64
10 100 24 17 7 67 23 112 36 92 27 122 43 124 65 2 26 -2 54 -11 80 -27 75
-162 505 -178 565 -10 39 -25 84 -34 100 -16 30 -658 1955 -658 1973 0 5 -31
16 1360 -445 723 -240 1327 -436 1343 -436 31 0 53 23 63 68 3 17 9 35 12 40
4 6 7 15 9 20 1 6 15 62 31 125 17 63 33 135 37 160 8 52 13 75 20 110 3 14 8
52 11 85 3 33 9 94 13 135 9 88 7 472 -4 545 -40 292 -36 270 -75 425 -109
443 -327 870 -619 1214 -93 110 -243 263 -331 337 -36 29 -67 56 -70 59 -3 3
-34 28 -70 55 -257 198 -558 358 -865 463 -120 41 -325 95 -400 106 -22 4 -65
11 -95 16 -30 5 -82 12 -115 15 -33 4 -71 9 -85 11 -33 6 -436 15 -441 10z
m461 -140 c282 -28 647 -126 870 -233 254 -122 288 -140 443 -244 590 -394
1034 -1026 1193 -1699 39 -165 42 -181 49 -245 4 -33 9 -62 10 -65 18 -31 27
-497 12 -669 -9 -108 -48 -326 -81 -456 -19 -72 -27 -91 -43 -93 -20 -3 -250
71 -264 85 -5 5 0 40 10 78 20 73 47 196 57 262 3 21 7 48 9 60 30 183 25 555
-10 753 -3 14 -7 41 -10 60 -20 128 -73 312 -137 479 -270 697 -870 1268
-1584 1505 -44 14 -89 28 -100 31 -10 2 -53 13 -94 24 -81 21 -99 24 -235 46
-302 49 -704 33 -990 -40 -33 -9 -71 -18 -84 -21 -94 -20 -325 -110 -466 -181
-394 -197 -737 -498 -987 -866 -73 -108 -203 -349 -250 -462 -46 -111 -114
-333 -133 -436 -3 -13 -7 -35 -10 -49 -16 -74 -27 -154 -41 -285 -5 -57 -5
-392 1 -440 19 -159 29 -218 46 -299 11 -50 22 -95 23 -101 2 -5 6 -23 10 -40
15 -59 70 -222 103 -304 173 -431 483 -829 863 -1108 379 -278 836 -451 1295
-490 153 -13 467 -7 575 11 14 3 45 7 70 10 25 4 109 21 188 40 l143 33 11
-21 c6 -12 28 -72 48 -134 27 -84 34 -116 26 -126 -14 -17 -252 -76 -375 -92
-25 -3 -49 -8 -52 -10 -15 -9 -236 -18 -429 -18 -210 0 -277 4 -410 26 -36 5
-77 12 -91 14 -61 8 -343 86 -444 122 -257 92 -524 234 -735 391 -133 98 -182
142 -335 295 -285 285 -481 579 -630 945 -37 92 -106 295 -120 356 -72 313
-93 488 -89 765 1 96 5 202 9 235 4 33 8 74 10 92 2 17 8 57 14 90 6 32 13 74
16 93 5 33 20 110 30 155 2 11 11 54 20 95 9 41 31 109 50 150 18 41 50 116
70 165 101 246 282 543 453 745 94 110 302 313 407 397 381 304 791 489 1305
588 14 3 72 12 130 20 58 8 116 16 130 18 36 5 465 -1 530 -7z m0 -440 c14 -3
45 -8 70 -10 25 -3 56 -8 70 -11 14 -3 37 -7 52 -10 76 -14 269 -69 355 -101
448 -166 807 -434 1122 -837 217 -277 410 -734 455 -1077 12 -89 16 -126 21
-170 6 -57 6 -407 1 -440 -3 -14 -7 -49 -10 -78 -14 -122 -34 -223 -67 -335
-19 -65 -21 -67 -47 -61 -15 4 -382 125 -817 270 -1385 460 -1497 496 -1522
485 -51 -23 -48 -45 37 -306 23 -71 59 -184 80 -250 21 -66 108 -327 194 -580
120 -359 336 -1016 406 -1237 7 -23 5 -28 -18 -37 -15 -6 -36 -13 -47 -16 -11
-2 -61 -13 -111 -24 -176 -38 -321 -53 -519 -53 -195 0 -285 9 -485 48 -460
90 -892 321 -1232 656 -269 266 -469 583 -593 940 -39 110 -91 314 -101 388
-3 25 -7 52 -9 60 -27 100 -27 541 0 705 7 39 16 94 22 125 42 239 173 581
299 781 33 54 96 151 106 164 51 67 144 184 157 196 9 9 49 51 90 94 308 321
716 555 1166 669 33 8 71 17 85 19 14 3 52 10 85 16 33 6 89 13 125 17 36 3
67 8 70 10 6 7 480 -3 510 -10z"/>
<path d="M3648 5839 c-113 -17 -237 -109 -287 -212 -38 -77 -44 -104 -44 -192
0 -131 64 -251 174 -324 79 -53 124 -65 234 -66 81 0 97 4 157 32 166 78 264
265 229 435 -46 222 -242 361 -463 327z"/>
<path d="M2634 5591 c-158 -40 -297 -217 -285 -363 2 -34 52 -78 106 -93 47
-14 53 -19 48 -38 -23 -99 -5 -179 47 -204 25 -12 157 -39 220 -46 61 -7 98
25 126 108 9 28 21 53 26 56 4 3 31 1 59 -5 44 -9 56 -8 87 9 54 29 72 70 76
162 7 200 -92 344 -274 397 -64 19 -192 28 -236 17z m196 -141 c102 -29 169
-106 186 -215 16 -99 3 -117 -63 -87 -74 32 -100 35 -122 13 -18 -18 -40 -80
-56 -158 -4 -18 -9 -33 -12 -33 -37 0 -136 25 -140 36 -2 7 3 39 12 71 22 73
23 129 4 148 -8 8 -48 19 -88 25 -41 6 -76 12 -78 13 -1 2 9 27 23 55 29 58
97 123 146 140 36 12 133 8 188 -8z"/>
<path d="M1832 5278 c-89 -10 -182 -56 -246 -121 -85 -87 -123 -193 -113 -311
20 -223 205 -381 434 -369 152 8 306 132 350 282 25 86 15 222 -21 294 -76
150 -245 244 -404 225z"/>
<path d="M4373 5180 c-43 -22 -73 -73 -73 -125 0 -25 0 -25 -79 -21 -121 7
-154 -21 -185 -158 -9 -37 -16 -84 -16 -105 0 -72 61 -130 151 -146 l37 -6 -2
-74 c-1 -65 2 -76 24 -100 57 -62 159 -72 290 -29 63 21 91 37 139 80 50 46
63 64 84 126 46 130 51 240 17 331 -41 108 -190 229 -302 243 -32 4 -54 0 -85
-16z m165 -158 c30 -19 65 -52 78 -72 28 -42 43 -118 33 -170 -3 -19 -9 -51
-13 -70 -10 -51 -45 -107 -85 -134 -66 -46 -177 -74 -205 -52 -14 10 -13 18 4
70 11 33 20 67 20 77 0 33 -39 57 -114 70 -114 20 -111 15 -91 127 l8 44 41
-6 c23 -3 60 -10 82 -14 52 -11 93 -7 110 10 7 7 16 45 19 83 4 39 9 74 12 78
7 12 43 -2 101 -41z"/>
<path d="M3391 4794 c-41 -15 -95 -46 -132 -76 -58 -48 -128 -198 -129 -273 0
-89 49 -143 135 -147 l50 -3 6 -80 c7 -74 9 -81 42 -111 38 -35 91 -47 203
-46 107 0 143 33 167 154 l12 62 56 -3 c48 -2 60 2 86 23 44 37 56 75 51 155
-10 136 -95 264 -215 323 -60 29 -75 32 -177 35 -83 2 -122 -1 -155 -13z m279
-139 c73 -37 126 -117 137 -205 6 -56 9 -54 -68 -40 -65 13 -106 5 -120 -22
-6 -11 -12 -55 -14 -97 -2 -42 -4 -82 -4 -89 -1 -10 -20 -12 -73 -10 l-73 3
-1 85 c-2 117 -2 117 -20 134 -11 12 -36 16 -95 16 -78 0 -79 0 -79 25 0 60
78 167 152 208 44 24 205 20 258 -8z"/>
<path d="M4805 4346 c-27 -6 -63 -22 -79 -36 -105 -91 -128 -117 -158 -178
-31 -63 -33 -73 -33 -177 0 -101 2 -115 29 -170 53 -108 165 -197 281 -223 96
-21 229 5 309 61 53 37 105 100 138 166 60 121 45 290 -37 401 -52 70 -131
128 -209 152 -47 14 -185 17 -241 4z"/>
<path d="M1516 4196 c-46 -17 -90 -57 -107 -98 -12 -30 -11 -39 18 -140 3 -11
-3 -18 -19 -23 -77 -23 -141 -105 -131 -168 12 -76 73 -198 112 -224 36 -23
107 -24 163 -2 l47 18 24 -53 c38 -83 115 -108 203 -65 56 27 157 135 189 204
75 158 -12 418 -170 511 -23 13 -62 30 -87 37 -61 19 -194 20 -242 3z m241
-140 c67 -34 122 -113 146 -206 25 -98 4 -164 -79 -247 -29 -29 -59 -53 -67
-53 -9 0 -22 27 -36 75 -30 105 -49 110 -181 54 -39 -16 -75 -27 -80 -24 -5 3
-14 22 -20 43 -7 20 -16 41 -21 47 -20 21 -8 46 29 61 113 46 152 73 152 107
0 11 -16 48 -35 83 l-35 62 27 10 c37 14 166 6 200 -12z"/>
<path d="M2635 3872 c-42 -8 -122 -47 -171 -83 -48 -35 -80 -82 -89 -132 -6
-30 30 -98 65 -123 l29 -20 -34 -48 c-72 -102 -70 -151 11 -232 66 -66 122
-104 162 -110 39 -6 95 22 144 71 l37 38 36 -32 c137 -120 295 33 291 283 -2
109 -22 158 -98 241 -48 53 -149 125 -198 140 -27 8 -154 13 -185 7z m182
-150 c50 -26 135 -110 157 -155 30 -65 14 -195 -33 -256 l-18 -23 -55 56 c-75
76 -89 75 -171 -15 -74 -81 -80 -82 -145 -16 l-41 42 59 65 c32 36 61 76 65
89 8 32 -14 62 -74 100 -28 18 -51 38 -51 45 0 17 70 59 150 90 28 11 117 -2
157 -22z"/>
<path d="M1485 3322 c-116 -40 -200 -113 -252 -221 -25 -50 -27 -67 -27 -166
-1 -104 1 -113 31 -170 110 -211 339 -288 546 -184 127 65 205 180 214 320 10
134 -27 230 -121 325 -45 45 -77 67 -121 83 -81 30 -203 36 -270 13z"/>
<path d="M2255 2866 c-66 -21 -103 -44 -158 -99 -56 -56 -103 -142 -113 -204
-3 -21 -7 -40 -9 -41 -6 -7 26 -86 42 -104 9 -10 42 -23 74 -30 33 -7 59 -17
60 -23 0 -5 2 -39 3 -75 3 -121 45 -152 226 -166 64 -4 80 -2 107 15 43 27 79
99 82 162 1 13 12 16 64 15 49 -1 68 3 93 21 56 40 77 126 53 218 -5 22 -11
45 -12 50 -1 6 -15 35 -29 65 -50 102 -134 165 -255 193 -77 18 -178 19 -228
3z m210 -131 c110 -28 177 -111 191 -235 5 -47 4 -50 -18 -50 -13 1 -45 7 -73
14 -79 21 -109 -2 -120 -91 -10 -75 -15 -106 -21 -115 -7 -11 -61 -10 -108 3
l-38 11 8 66 c18 152 6 171 -104 174 -71 2 -72 2 -72 28 0 57 87 164 160 196
27 12 146 11 195 -1z"/>
<path d="M3038 2444 c-291 -74 -395 -449 -184 -665 88 -91 182 -128 311 -122
101 4 186 42 263 120 206 205 127 553 -149 657 -57 22 -177 27 -241 10z"/>
<path d="M3937 3052 c-10 -10 -17 -25 -17 -33 0 -24 97 -322 492 -1509 434
-1308 434 -1307 454 -1338 20 -31 48 -28 162 14 446 167 860 447 1182 800 254
279 473 643 604 1006 39 106 37 119 -22 144 -45 19 -802 273 -1702 571 -1021
339 -1096 363 -1117 363 -11 0 -27 -8 -36 -18z m573 -287 c223 -75 572 -190
775 -257 204 -66 374 -123 379 -126 5 -3 -15 -13 -45 -22 -156 -49 -247 -141
-291 -295 -35 -123 10 -283 108 -379 210 -208 567 -122 664 159 15 44 19 77
16 143 -4 98 -24 154 -82 234 -20 26 -30 46 -22 43 7 -2 77 -25 156 -50 105
-34 142 -50 142 -62 0 -9 -23 -59 -52 -112 -234 -436 -545 -780 -950 -1054
-127 -86 -331 -198 -445 -244 -47 -19 -52 -20 -58 -5 -9 22 -135 395 -135 400
0 2 24 -16 53 -40 64 -53 85 -65 154 -89 67 -23 188 -20 253 6 110 44 212 145
244 243 24 72 27 129 10 209 -20 99 -35 131 -90 192 -77 85 -171 130 -284 135
-203 7 -371 -129 -413 -335 l-13 -64 -16 50 c-9 28 -41 127 -71 220 -30 94
-63 201 -72 240 -10 38 -42 133 -71 211 -54 144 -245 706 -258 757 -3 15 -3
27 2 27 4 0 190 -61 412 -135z m2059 -685 c63 -22 116 -42 119 -45 7 -7 -46
-139 -108 -270 -282 -592 -767 -1075 -1364 -1359 -190 -91 -281 -120 -275 -89
1 4 0 15 -4 23 -25 64 -77 226 -77 240 0 11 10 22 23 26 77 24 335 164 486
264 201 133 329 235 451 359 86 87 96 99 206 227 110 128 260 353 357 536 36
67 71 129 72 128 0 0 51 -18 114 -40z"/>
<path d="M4718 2665 c-2 -2 -23 -5 -48 -8 -118 -12 -256 -100 -282 -180 -20
-63 -12 -93 37 -143 l44 -44 -30 -35 c-47 -53 -60 -107 -42 -180 17 -66 28
-83 61 -90 12 -2 37 -15 55 -29 88 -67 143 -65 226 10 45 40 52 44 70 32 12
-7 21 -16 21 -19 0 -3 18 -14 39 -24 129 -58 257 107 253 324 -2 92 -42 169
-130 252 -72 68 -154 114 -227 128 -24 5 -46 7 -47 6z m99 -160 c54 -27 130
-101 157 -153 31 -60 18 -178 -27 -251 l-20 -34 -47 51 c-60 66 -87 77 -129
51 -17 -10 -31 -22 -31 -26 -1 -5 -21 -30 -45 -57 l-43 -49 -34 21 c-18 11
-44 32 -57 46 l-24 25 27 38 c15 21 43 60 61 87 19 26 35 57 35 67 0 11 -17
31 -41 47 -22 15 -52 37 -67 49 l-27 23 25 20 c86 70 200 88 287 45z"/>
</g>
</svg>
